/* XPM */
static char *_d5a5edbcd014e56e241e11d34092060pjvVJmQMZDTDB0Lz[] = {
/* columns rows colors chars-per-pixel */
"32 32 216 2 ",
"   c #0F0D04",
".  c #160300",
"X  c #150B00",
"o  c #1C0D01",
"O  c #16140A",
"+  c #1C1409",
"@  c #210E00",
"#  c #270C04",
"$  c #221404",
"%  c #26190B",
"&  c #281404",
"*  c #381B07",
"=  c #271D14",
"-  c #351C16",
";  c #3F1F12",
":  c #2D2315",
">  c #232119",
",  c #2A231A",
"<  c #322415",
"1  c #3A2B1E",
"2  c #3B241A",
"3  c #3B2E25",
"4  c #372E27",
"5  c #3F372E",
"6  c #2A2722",
"7  c #461602",
"8  c #552113",
"9  c #4A311C",
"0  c #5D301D",
"q  c #462A27",
"w  c #4B2927",
"e  c #453423",
"r  c #49372C",
"t  c #523324",
"y  c #553A2A",
"u  c #483C33",
"i  c #543B33",
"p  c #653F2F",
"a  c #603223",
"s  c #4A453B",
"d  c #54433B",
"f  c #5D433B",
"g  c #564737",
"h  c #5C442C",
"j  c #6C462F",
"k  c #79472C",
"l  c #694C3C",
"z  c #674637",
"x  c #7A4B37",
"c  c #755339",
"v  c #6E543B",
"b  c #4D4E49",
"n  c #574A43",
"m  c #5C544C",
"M  c #52554E",
"N  c #674C46",
"B  c #724C43",
"V  c #685549",
"C  c #735B47",
"Z  c #73534A",
"A  c #7B5947",
"S  c #695A57",
"D  c #7B5C52",
"F  c #7B6249",
"G  c #7B6A5A",
"H  c #776356",
"J  c #6E6659",
"K  c #72756D",
"L  c #796C63",
"P  c #864D3B",
"I  c #84583F",
"U  c #8D5A41",
"Y  c #835A4C",
"T  c #865748",
"R  c #935A44",
"E  c #885D56",
"W  c #88664D",
"Q  c #94664B",
"!  c #9C794B",
"~  c #806354",
"^  c #8B6356",
"/  c #836A5C",
"(  c #8E695E",
")  c #84635A",
"_  c #936D5C",
"`  c #976956",
"'  c #88715C",
"]  c #9B735C",
"[  c #937D5B",
"{  c #987C56",
"}  c #A37A4D",
"|  c #A66D56",
" . c #A47455",
".. c #A67758",
"X. c #886E67",
"o. c #966E62",
"O. c #9A7262",
"+. c #937D64",
"@. c #987E62",
"#. c #947768",
"$. c #897D75",
"%. c #917C77",
"&. c #8C7968",
"*. c #AB7D69",
"=. c #A37965",
"-. c #B17F66",
";. c #A57F72",
":. c #9D835B",
">. c #A4824A",
",. c #AC864A",
"<. c #B28B47",
"1. c #B38E4D",
"2. c #A58452",
"3. c #AC8355",
"4. c #A2835C",
"5. c #AC855B",
"6. c #A58A5B",
"7. c #AC8A5C",
"8. c #AF8A56",
"9. c #B48D54",
"0. c #B1855C",
"q. c #B38B5A",
"w. c #AE905A",
"e. c #B39154",
"r. c #BB945A",
"t. c #BA9A5B",
"y. c #B6905A",
"u. c #958264",
"i. c #96836A",
"p. c #9C8769",
"a. c #87817A",
"s. c #998C78",
"d. c #AF8162",
"f. c #A98B62",
"g. c #A98668",
"h. c #B48E63",
"j. c #B2836A",
"k. c #B48763",
"l. c #AF9265",
"z. c #B59165",
"x. c #BB9363",
"c. c #B49A63",
"v. c #B59569",
"b. c #BC936A",
"n. c #BA9B67",
"m. c #A78777",
"M. c #B68777",
"N. c #A19177",
"B. c #B89776",
"V. c #BDA269",
"C. c #C39D68",
"Z. c #C59F72",
"A. c #C08575",
"S. c #C3A264",
"D. c #9D9690",
"F. c #93918A",
"G. c #B08F86",
"H. c #AC9E89",
"J. c #A49483",
"K. c #A19C97",
"L. c #AFA187",
"P. c #A3A39C",
"I. c #AEA190",
"U. c #B6A994",
"Y. c #B5A795",
"T. c #A9A9A2",
"R. c #B6A5A2",
"E. c #BBB3AD",
"W. c #BBB3A5",
"Q. c #A9AEB1",
"!. c #AEB8B0",
"~. c #B3BAB5",
"^. c #BEBABB",
"/. c #BAB6B5",
"(. c #CC9B8D",
"). c #C5BAAA",
"_. c #C1B2AF",
"`. c #C4BDBC",
"'. c #C6BAB5",
"]. c #D0BBBA",
"[. c #BEC1BD",
"{. c #B6C5BD",
"}. c #C3C2BD",
"|. c #CCC5BD",
" X c #CCC9BF",
".X c #C7C5B8",
"XX c #D3CABE",
"oX c #D7D0BE",
"OX c #BBBEC2",
"+X c #BFBDC8",
"@X c #C3BEC2",
"#X c #C0BDC8",
"$X c #BEC3C4",
"%X c #BECAC5",
"&X c #BDC3C9",
"*X c #BDCACB",
"=X c #BFCAD0",
"-X c #C3C4C4",
";X c #CBC5C3",
":X c #C4C9C5",
">X c #CACAC4",
",X c #C3C5C9",
"<X c #C3CBCA",
"1X c #CAC9CB",
"2X c #C9C5CB",
"3X c #D1C5C1",
"4X c #D2CBC3",
"5X c #D9CDC7",
"6X c #D3CBCA",
"7X c #DACACA",
"8X c #CDD3CD",
"9X c #C5CDD3",
"0X c #C9D8D5",
"qX c #D4D5D1",
"wX c #DAD5D5",
"eX c #E3CFCE",
/* pixels */
"`.`.}.}.-X$X$X%X<X%X%X{.0X{.{.%X9X*X9X9X&X9X<X,X,X-X@X:X;X}.}.}.",
"`.`.}.-X-X-X$X%X%X<X<X%X!.8X:XqX~.Q.,X<X9X,X~.wX1X-X-X:X}.}.}.}.",
"}.}.}.-X-X-X-X-X$X$X:X>X6X/.$.u 4 = , m K.wXqX^.-X-X-X-X-X[.}.-X",
"-X-X-X$X-X-X-X-X-X1X/.;X'.r # < 2 & . @ 2 L |.;X}.`.$X-X,X-X-XOX",
"-X$X$X-X-X-X-X-X6X`.7X].q - B B T k j y & . V 4X}.}.$X$X,X,X&XOX",
"$X$X$X$X-X-X-X-X'.7XeXZ w E E E U k U c A 9 X s.>X>X$XOX$X,X,X&X",
"$X$X$X$X,X,X,X-X6X'.R.q Z z A ] | |  .I _ F < s }.}.-X$X$X$X,X,X",
"-X-X-X-X,X,X,X-X^.wXX.2 D A o.T Q | U Q W F V O T.~.,X,X$XOX+X#X",
"@X-X-X-X,X,X,X-X-X6Xn < D D _ ] ` | | O.' H J O K 8X$X$X-X@X@X#X",
"@X@X-X-X,X,X,X-X-XE.s 1 f 9 z _ M.(.M.( V d m > M [.-X-X-X@X,X2X",
"@X@X-X-X,X,X,X-X-XP.5 $ 9 h l v O.M.^ l f 3 5 > b [.-X-X-X@X-X@X",
"@X@X-X-X-X,X,X-X>XF.s g l l F g.m.T ( G.Z i S = S >X-X@X-X-X-X^.",
"`.-X-X-X-X-X-X-X-XF.d V C A W =.A T Y m.#.N V u S ;X-X`.-X1X1X$X",
"}.}.}.-X-X-X-X-X-XK.i f B _ Q k x T c _ _ / X.N V `.;X>X-X$X-X-X",
"}.}.}.-X-X:X,X-X6XR.n ) ^ ^ ` R U -.x T =.o.Z i H 3X;X>X,XOX$X&X",
"}.}.}.-X-X:X,X-X;X_.f Z ` M.A.U R | Q M.*.O.X.z %.5X`.-X1X$X&X*X",
"}.-X-X-X-X,X,X-X6XE.r z O.=...P P | x =.M.;.D i %.5X}.>X-X-X$X$X",
"}.-X-X-X-X-X,X-X}.T.3 i ~ j 0 7 P U 8 a l #.H - $.3X}.1X-X-X$X&X",
"}.}.}.:X-X-X>X>X>XP., 1 N y t p ^ T p z t Z d = a.}.:X1X,X$X,X,X",
"}.}.}.:X,X,X,X,X8XP.6 + u r V m.#.#.#.~ i e = 4 D.}.-X-X,X-X,X,X",
"}.}.}.:X:X,X,X,X<XT.s   > , u G G &.G r < : + b E.;X-X-X2X,X,X,X",
"}.}.}.:X:X:X:X:X,X~.K > O   + 3 g g e $ $ + > a.;X>X-XOX1X,X,X,X",
"}.}.}.:X:X>X>X:X>X}.P.s = X o % : < % $ % + s E.4X}.>X^.1X-X-X-X",
"}.-X:X:X:X>X>X X X4X.XJ 1 o o o o & @ . $ e $.|.XX'.>X`.1X-X-X-X",
"-X-X:X;X;X XXXXX).Y./ C ' v * & # 2 ; t H / / J.).'.|. X X}.:X;X",
"`.`.`.;X5XXX).H.+.@.F c { =.Q ` ] O._ =.m.~ A m.+.s.Y.).XX4X|.}.",
";X4X|.).I.s.i.@.[ g...Q ! 5.k.d.j.*.j.M.j.W W B.@.+.u.s.H.W..XoX",
").Y.N.i.i.u.:.{ 4.z.b.3.} 3.k.0.d.j.k.d. ...h.B.f.4.[ [ i.N.L.U.",
"p.u.[ [ :.6.6.2.} 3.x.r.3.0.b.b.b.b.b.3.3.b.Z.h.7.7.6.:.{ [ [ u.",
"{ :.f.7.2.>.>.,.9.9.y.x.q.0.h.b.z.7.7.y.x.C.C.q.8.8.3.2.{ { 4.f.",
"w.2.! >.e.t.e.,.e.9.y.x.x.z.v.n.n.c.c.V.S.t.e.e.,.,.q.y.h.7.5.5.",
"e.e.e.9.1.<.<.<.1.t.t.n.n.v.z.z.6.c.V.n.t.t.t.S.e.9.9.q.q.q.5.3."
};
