/* XPM */
static char *eea032b7601e4b98aad35e696dd16350CPvdI1FeQ1ukCuOe[] = {
/* columns rows colors chars-per-pixel */
"32 32 2 2",
"   c None",
".  c orange",
/* pixels */
"                      ...................                       ",
"                  ...........................                   ",
"              ...................................               ",
"            .......................................             ",
"          ...........................................           ",
"        ...............................................         ",
"      ...................................................       ",
"    ......................................................      ",
"  .........................................................     ",
"  ..........................................................    ",
"  ...........................................................   ",
" .............................................................  ",
" .............................................................  ",
"............................................................... ",
"............................................................... ",

"............................................................... ",
"............................................................... ",
"............................................................... ",
" .............................................................  ",
" .............................................................  ",
" .............................................................  ",
"  ...........................................................   ",
"   .........................................................    ",
"    .......................................................     ",
"     .....................................................      ",
"      ...................................................       ",
"        ..............................................          ",
"          ............................................          ",
"            .........................................           ",
"              ....................................              ",
"                  ............................                  ",
"                       ...................                      "
};
