/* XPM */
static char *_8bd1b2d2f0d46c1883ec46ee9df6a56TevkumkRxfvRz0Dr[] = {
/* columns rows colors chars-per-pixel */
"64 64 228 2 ",
"   c #020303",
".  c #0B0B0B",
"X  c #000408",
"o  c #040D16",
"O  c #08121C",
"+  c #161616",
"@  c #031322",
"#  c #0A1828",
"$  c #001D3A",
"%  c #051D35",
"&  c #0E2134",
"*  c #11283F",
"=  c #323334",
"-  c #225F31",
";  c #36713A",
":  c #042547",
">  c #012C57",
",  c #0E3256",
"<  c #1B344D",
"1  c #023262",
"2  c #073664",
"3  c #003A75",
"4  c #1E5C42",
"5  c #06477F",
"6  c #1A4876",
"7  c #326978",
"8  c #535455",
"9  c #51667A",
"0  c #1C8B1F",
"q  c #3A9435",
"w  c #41823F",
"e  c #068A55",
"r  c #4F8662",
"t  c #4DB155",
"y  c #75C777",
"u  c #02478A",
"i  c #134B83",
"p  c #004E9B",
"a  c #044C94",
"s  c #04509D",
"d  c #1B5894",
"f  c #18538E",
"g  c #255687",
"h  c #047F95",
"j  c #356799",
"k  c #0252A4",
"l  c #0156AB",
"z  c #0B5BAC",
"x  c #075AAC",
"c  c #015AB3",
"v  c #015EBB",
"b  c #0A5EB2",
"n  c #115CA7",
"m  c #1561AE",
"M  c #0B64BD",
"N  c #0961BA",
"B  c #1463B3",
"V  c #1469BD",
"C  c #196ABA",
"Z  c #197DB6",
"A  c #286DB3",
"S  c #2277BD",
"D  c #336FAB",
"F  c #005FC1",
"G  c #0363C4",
"H  c #0D69C4",
"J  c #0166CA",
"K  c #0469CD",
"L  c #0C6CCC",
"P  c #0A67C3",
"I  c #166DC3",
"U  c #116ECB",
"Y  c #1371CE",
"T  c #1B73CA",
"R  c #026BD3",
"E  c #0A6ED1",
"W  c #016EDB",
"Q  c #0C71D6",
"!  c #0471DD",
"~  c #0A73DB",
"^  c #1273D4",
"/  c #1D79D5",
"(  c #1276DA",
")  c #1479DE",
"_  c #1D7DDC",
"`  c #1975D1",
"'  c #2777C7",
"]  c #337DC8",
"[  c #217BD5",
"{  c #2A7FD3",
"}  c #217FDE",
"|  c #0373E3",
" . c #0A76E2",
".. c #0E7AE4",
"X. c #0275EA",
"o. c #0579ED",
"O. c #0B7CEC",
"+. c #127BE3",
"@. c #1A7EE2",
"#. c #127EE9",
"$. c #047CF4",
"%. c #0A7EF1",
"&. c #047FF8",
"*. c #269684",
"=. c #7D8888",
"-. c #6194AE",
";. c #3982CB",
":. c #2882DB",
">. c #3589DC",
",. c #3B8CDC",
"<. c #3285D7",
"1. c #1D81E5",
"2. c #1581EC",
"3. c #1B83EB",
"4. c #0D81F5",
"5. c #0C84FC",
"6. c #0984FE",
"7. c #1283F2",
"8. c #1A87F2",
"9. c #1C89F4",
"0. c #148AFE",
"q. c #1C8DFE",
"w. c #1486F8",
"e. c #2485E5",
"r. c #2987E3",
"t. c #2C89E5",
"y. c #2389ED",
"u. c #2A8CEC",
"i. c #2286E9",
"p. c #358EE6",
"a. c #378EE6",
"s. c #3892ED",
"d. c #298EF3",
"f. c #228EF9",
"g. c #238CF3",
"h. c #2E91F4",
"j. c #2492FE",
"k. c #2C95FE",
"l. c #2F98FF",
"z. c #3495F5",
"x. c #3D9AF6",
"c. c #349AFE",
"v. c #3B9DFF",
"b. c #3697F6",
"n. c #3EA0FF",
"m. c #4689CB",
"M. c #418DD9",
"N. c #4791DA",
"B. c #5C9CDC",
"V. c #5697D8",
"C. c #5894CF",
"Z. c #679DD3",
"A. c #65A1DC",
"S. c #6BA3DA",
"D. c #6EA0D2",
"F. c #74A9DC",
"G. c #77A7D6",
"H. c #4C98E4",
"J. c #4A9CED",
"K. c #4597E8",
"L. c #519BE4",
"P. c #449DF4",
"I. c #419EFB",
"U. c #5CA4EA",
"Y. c #4CA1F5",
"T. c #44A2FF",
"R. c #4BA5FE",
"E. c #52A2F1",
"W. c #54AAFF",
"Q. c #5AACFE",
"!. c #55A8FA",
"~. c #6AA8E5",
"^. c #75ADE4",
"/. c #7BB2E8",
"(. c #63B1FF",
"). c #6CB5FE",
"_. c #6FB1F3",
"`. c #77BBFE",
"'. c #7ABAF9",
"]. c #898988",
"[. c #869AAA",
"{. c #A5A8A9",
"}. c #B5B5B5",
"|. c #B5C4B9",
" X c #91CA88",
".X c #84ADD5",
"XX c #8AB3DB",
"oX c #A7BCD4",
"OX c #A9B7C5",
"+X c #87B7E7",
"@X c #95BCE3",
"#X c #B8CADC",
"$X c #9BC4EC",
"%X c #8BC2F9",
"&X c #99CAFC",
"*X c #95C6F7",
"=X c #A6C4E3",
"-X c #B7CDE3",
";X c #B9D1EA",
":X c #A7CFF6",
">X c #AAD4FD",
",X c #B5DAFF",
"<X c #BDDDFE",
"1X c #B9D7F5",
"2X c gray78",
"3X c #C2D7EB",
"4X c #C8DBEC",
"5X c #D3DDE7",
"6X c #C6DEF6",
"7X c #DDE6EE",
"8X c #C3E1FE",
"9X c #CCE5FE",
"0X c #DBEDFF",
"qX c #D4E6F9",
"wX c #E6E6E5",
"eX c #E3ECF4",
"rX c #E6EDF5",
"tX c #E4F1FE",
"yX c #EDF5FE",
"uX c #EEF0F2",
"iX c #F3F7FB",
"pX c #F5FAFF",
"aX c #F4F9FE",
"sX c white",
"dX c #FEFFFF",
"fX c #FDFEFF",
"gX c #FFFFFF",
"hX c #F5F5F4",
/* pixels */
"sXsXsXsXsXsXsXsXsXsXsXsXsXsXsXsXsXsXsXsXsXsXsXsXsXsXsXsXaXaXpXpXaXaXpXsXsXsXsXsXsXsXsXsXsXsXsXsXsXsXsXsXsXsXsXsXsXsXsXsXsXsXsXsX",
"sXsXsXsXsXsXsXsXsXsXsXsXsXsXsXsXsXsXsXsXsXsXsXsXsXtX9X&X~.^.^.F.C.V.N.A.+X&X8XyXsXsXsXsXsXsXsXsXsXsXsXsXsXsXsXsXsXsXsXsXsXsXsXsX",
"sXsXsXsXsXsXsXsXsXsXsXsXsXsXsXsXsXsXsXsXsXsXsXtX1X+X~.N.>.>.>.[ U G P F G L @.Y.,XpXsXsXsXsXsXsXsXsXsXsXsXsXsXsXsXsXsXsXsXsXsXsX",
"sXsXsXsXsXsXsXsXsXsXsXsXsXsXsXsXsXsXsXsXsXyX,X`.J.H.E.I.v.c.v.h.) K E R W K K R 1.>XpXsXsXsXsXsXsXsXsXsXsXsXsXsXsXsXsXsXsXsXsXsX",
"sXsXsXsXsXsXsXsXsXsXsXsXsXsXsXsXsXsXsXpX9X%XQ.T.T.T.n.k.k.j.q.q...E R K R R K W R s.,XsXsXsXsXsXsXsXsXsXsXsXsXsXsXsXsXsXsXsXsXsX",
"sXsXsXsXsXsXsXsXsXsXsXsXsXsXsXsXsXsXpX<X).W.Q.R.T.k.q.0.5.5.0.4.O.| ~ ~ | X.J J ! ^ !.yXsXsXsXsXsXsXsXsXsXsXsXsXsXsXsXsXsXsXsXsX",
"sXsXsXsXsXsXsXsXsXsXsXsXsXsXsXsXsXsX<X).R.W.Q.R.k.0.0.0.q.k.j.6.4.$.7.%.$.o.R R ! W +.&XsXsXsXsXsXsXsXsXsXsXsXsXsXsXsXsXsXsXsXsX",
"sXsXsXsXsXsXsXsXsXsXsXsXsXsXsXsXsX0X%XW.T.R.Q.T.q.0.0.q.k.v.k.q.q.q.0.0.4.%.~ E W W K s.9XsXsXsXsXsXsXsXsXsXsXsXsXsXsXsXsXsXsXsX",
"sXsXsXsXsXsXsXsXsXsXsXsXsXsXsXsXpX,X`.(.R.R.R.T.k.j.q.j.q.k.v.j.q.k.j.j.q.0.2.! R W J / `.pXsXsXsXsXsXsXsXsXsXsXsXsXsXsXsXsXsXsX",
"sXsXsXsXsXsXsXsXsXsXsXsXsXsXsXsXaX>X`.(.Q.R.T.v.j.c.k.c.j.q.q.5.0.0.q.k.q.8.O.! W R R L P.tXsXsXsXsXsXsXsXsXsXsXsXsXsXsXsXsXsXsX",
"sXsXsXsXsXsXsXsXsXsXsXsXsXsXsXsXtX%XQ.W.T.v.v.k.j.c.v.R.T.l.q.0.0.q.v.R.j.8...| W J J P t.8XsXsXsXsXsXsXsXsXsXsXsXsXsXsXsXsXsXsX",
"sXsXsXsXsXsXsXsXsXsXsXsXsXsXsXsX9XF.).W.v.q.k.j.q.j.c.v.v.j.q.q.0.0.c.T.j.w.4...X.R R R ^ >XsXsXsXsXsXsXsXsXsXsXsXsXsXsXsXsXsXsX",
"sXsXsXsXsXsXsXsXsXsXsXsXsXsXsXpX>XS.).W.v.q.c.k.k.j.v.c.j.j.j.q.0.j.c.z.8.5.4.2...W R ~ L *XsXsXsXsXsXsXsXsXsXsXsXsXsXsXsXsXsXsX",
"sXsXsXsXsXsXsXsXsXsXsXsXsXsXsXyX%X~.(.W.v.v.c.c.c.v.T.v.q.0.j.j.j.j.c.h.z.q.7.....W W ! L _.pXsXsXsXsXsXsXsXsXsXsXsXsXsXsXsXsXsX",
"sXsXsXsXsXsXsXsXsXsXsXsXsXsXsX0X+X'.(.R.v.v.R.T.q.c.T.c.q.q.j.q.j.c.R.P.d.7.O.#. .! W W R H.aXsXsXsXsXsXsXsXsXsXsXsXsXsXsXsXsXsX",
"sXsXsXsXsXsXsXsXsXsXsXsXsXsXpX9XG.`.Q.T.R.R.T.v.q.j.v.c.k.0.0.j.j.R.W.I.h.4.o.+.) W W E L ,.0XsXsXsXsXsXsXsXsXsXsXsXsXsXsXsXsXsX",
"sXsXsXsXsXsXsXsXsXsXsXsXsXsXsX<XA.(.Q.T.R.T.c.c.j.q.v.j.q.5.6.q.j.c.c.d.@.R E L L E W K ~ / 8XsXsXsXsXsXsXsXsXsXsXsXsXsXsXsXsXsX",
"sXsXsXsXsXsXsXsXsXsXsXsXsXsXpX,XS.Q.T.T.v.v.q.0.c.v.!.T.q.0.0.5.4.3.:.1.#.O.~ U Y E W W | ` :XsXsXsXsXsXsXsXsXsXsXsXsXsXsXsXsXsX",
"sXsXsXsXsXsXsXsXsXsXsXsXsXsXsX<XA.Q.v.T.T.v.y. .r.,.N.P.,.:.:.( ! 2.u.:.) O.^ I L | W W ! U *XsXsXsXsXsXsXsXsXsXsXsXsXsXsXsXsXsX",
"sXsXsXsXsXsXsXsXsXsXsXsXsXsXsX6XS.R.k.k.k.k.t.1.s.J.K.Y.I.u.h.0.5.3.L.P.f.X.R ( K G v L R ^ +XsXsXsXsXsXsXsXsXsXsXsXsXsXsXsXsXsX",
"sXsXsXsXsXsXsXsXsXsXsXsXsXsXsX9XS.R.j.0.q.q.e.@.>.H.L.P.x.a.,.h.2.t.c.5. .W R R J J J K Q ~ /.sXsXsXsXsXsXsXsXsXsXsXsXsXsXsXsXsX",
"sXsXsXsXsXsXsXsXsXsXsXsXsXsXsX0XA.z.0.0.0.) 3.k.v.v.E.E.I.j.l.T.R.v.8.( U c l P E K  .W E ( +XsXsXsXsXsXsXsXsXsXsXsXsXsXsXsXsXsX",
"sXsXsXsXsXsXsXsXsXsXsXsXsXsXsXtX+Xa.q.0.j.h.3.i , , & & : u 2.Q.(.3.> @ # o O @ % B h.! W ^ @XsXsXsXsXsXsXsXsXsXsXsXsXsXsXsXsXsX",
"sXsXsXsXsXsXsXsXsXsXsXsXsXsXsXaX&XV.j.6.q.v.f @ : 1 1 1 $ o B !.U.' $ 1 p s p u > 2 u.! W Y ;XsXsXsXsXsXsXsXsXsXsXsXsXsXsXsXsXsX",
"sXsXsXsXsXsXsXsXsXsXsXsXsXsXsXpX<XU.i.6.0.u.u k k k v J F p V Y.Y.<.v G l u 5 i c a I ! ! { eXsXsXsXsXsXsXsXsXsXsXsXsXsXsXsXsXsX",
"sXsXsXsXsXsXsXsXsXsXsXsXsXsXsXsXtX&X,.4.q.@.G g =.- 4 7 D R ^ R.Y.r.^ -.r ; w {.g c v W X.S.pXsXsXsXsXsXsXsXsXsXsXsXsXsXsXsXsXsX",
"sXsXsXsXsXsXsXsXsXsXsXsXsXsXsXhXwX*Xt.[ 0.4.W j |.q q  XoX..y.R.P.) e.oXy 0 t [.m J R R ) ;XsXpXsXsXsXsXsXsXsXsXsXsXsXsXsXsXsXsX",
"sXsXsXsXsXsXsXsXsXsXsXsXsXsXsXhXOX<./ I 1.q.$.L D *.e -.;.%.u.R.z.1.Q ` S h Z z K W R R ] $X%X4XsXsXsXsXsXsXsXsXsXsXsXsXsXsXsXsX",
"sXsXsXsXsXsXsXsXsXsXsXsXsXsXsXsX5XN.Y./ V e.2.7.O.X.X.| 4.8.u.v.z.E K o.%.o.X.R R W J P C [ Y .XpXsXsXsXsXsXsXsXsXsXsXsXsXsXsXsX",
"sXsXsXsXsXsXsXsXsXsXsXsXsXsXsXsXyX^.s.y.V @.k.c.j.0.j.j.k.v.P.R.h.~ | O.R K X.o.W R J c G J P @XsXsXsXsXsXsXsXsXsXsXsXsXsXsXsXsX",
"sXsXsXsXsXsXsXsXsXsXsXsXsXsXsXsXsX:XM.h.^ Y w.j.k.k.R.R.v.W.!.(.u.! J W R L O.X.R ~ E G R R ' 4XsXsXsXsXsXsXsXsXsXsXsXsXsXsXsXsX",
"sXsXsXsXsXsXsXsXsXsXsXsXsXsXsXsXsX0XS.T.y.P ..f.k.T.I.k.z.H.!.Q.3.E x K R Q ~ W J ! R l K e.G.pXsXsXsXsXsXsXsXsXsXsXsXsXsXsXsXsX",
"sXsXsXsXsXsXsXsXsXsXsXsXsXsXsXsXsXsX=XJ.I.L L 2.0.c.k.0.Y { W.W.P.r.P c K +.W K J R J k R M.5XsXsXsXsXsXsXsXsXsXsXsXsXsXsXsXsXsX",
"sXsXsXsXsXsXsXsXsXsXsXsXsXsXsXsXsXsXqXB.c.#.v  .w.0.q.c.:.J.W.Q.Y.a.L p P Q Q ^ P K v c E Z.yXsXsXsXsXsXsXsXsXsXsXsXsXsXsXsXsXsX",
"sXsXsXsXsXsXsXsXsXsXsXsXsXsXsXsXsXsXpXXXh.4.P Q d.T.c.c.c.K.S C T m b l P P _ ^ L L v G ;.3XsXsXsXsXsXsXsXsXsXsXsXsXsXsXsXsXsXsX",
"sXsXsXsXsXsXsXsXsXsXsXsXsXsXsXsXsXsXsX1X,.b.t.u.I.v.R.v.c.P._ u a x L P L / :.U L M G U +XpXsXsXsXsXsXsXsXsXsXsXsXsXsXsXsXsXsXsX",
"sXsXsXsXsXsXsXsXsXsXsXsXsXsXsXsXsXsXsXyX$X~.J.x.f.q.j.j.j.j.0.V ^ V ~ E E / { Y L z n ;.1XsXsXsXsXsXsXsXsXsXsXsXsXsXsXsXsXsXsXsX",
"sXsXsXsXsXsXsXsXsXsXsXsXsXsXsXsXsXsXsXsXsX8XM.q.0.5.6.0.q.8.#.I ( V @.+. .~ ( R K ' F.$XtXsXsXsXsXsXsXsXsXsXsXsXsXsXsXsXsXsXsXsX",
"sXsXsXsXsXsXsXsXsXsXsXsXsXsXsXsXsXsXsXsXsX6X,.j.q.0.0.3.[ I H N z z M T ..| | J J m.eXaXsXsXsXsXsXsXsXsXsXsXsXsXsXsXsXsXsXsXsXsX",
"sXsXsXsXsXsXsXsXsXsXsXsXsXsXsXsXsXsXsXsXsX1XH.c.8.g.t.A C I M N c N H b n U W J W Z.pXsXsXsXsXsXsXsXsXsXsXsXsXsXsXsXsXsXsXsXsXsX",
"sXsXsXsXsXsXsXsXsXsXsXsXsXsXsXsXsXsXsXsXpX+Xa.g.7.g.t.z k N x x u k k s a B W R $.V.yXsXsXsXsXsXsXsXsXsXsXsXsXsXsXsXsXsXsXsXsXsX",
"sXsXsXsXsXsXsXsXsXsXsXsXsXsXsXsXsXsXsXsXtXB.k.7.$.3.} G c v c c c l c k p v G J | ,.7XsXsXsXsXsXsXsXsXsXsXsXsXsXsXsXsXsXsXsXsXsX",
"sXsXsXsXsXsXsXsXsXsXsXsXsXsXsXsXsXsXsXsX4Xa.0.o.| 2.z.e.E P P G G G G v v G G G J L =XsXsXsXsXsXsXsXsXsXsXsXsXsXsXsXsXsXsXsXsXsX",
"sXsXsXsXsXsXsXsXsXsXsXsXsXsXsXsXsXsXsXsX=Xs.q.&.R 1.R.P.3.) R J J P K U G U L K R J D.sXsXsXsXsXsXsXsXsXsXsXsXsXsXsXsXsXsXsXsXsX",
"sXsXsXsXsXsXsXsXsXsXsXsXsXsXsXsXsXsXsXaXF.v.q.5.G +.h.K.9.5. .K E Q 3...J ^ Q P G R ;.rXsXsXsXsXsXsXsXsXsXsXsXsXsXsXsXsXsXsXsXsX",
"sXsXsXsXsXsXsXsXsXsXsXsXsXsXsXsXsXsXsXeXB.c.q.7.G %.7.i.0.0.9.Q K W #.~ Q _ / ' v W [ #XsXsXsXsXsXsXsXsXsXsXsXsXsXsXsXsXsXsXsXsX",
"sXsXsXsXsXsXsXsXsXsXsXsXsXsXsXsXsXsXsX3XL.j.q.#.R &.4.0.q.0.f.) W ! ~ E Q _ Y V N  .#.G.iXsXsXsXsXsXsXsXsXsXsXsXsXsXsXsXsXsXsXsX",
"sXsXsXsXsXsXsXsXsXsXsXsXsXsXsXsXsXsXpXXXz.0.0.( W $.6.0.0.4.9.1. .W ) L ( _ L M I O.5.V.rXsXsXsXsXsXsXsXsXsXsXsXsXsXsXsXsXsXsXsX",
"sXsXsXsXsXsXsXsXsXsXsXsXsXsXsXsXsXsXyXB.j.0.q.R W &.6.2...| O.O. .| ..^ r.8.E I L O.X._ #XsXsXsXsXsXsXsXsXsXsXsXsXsXsXsXsXsXsXsX",
"sXsXsXsXsXsXsXsXsXsXsXsXsXsXsXsXsXsXiX/.k.v.k.L W o.&.#.^ ( .. .~  .~ ! 3.7.E L G ! W 1.oXsXsXsXsXsXsXsXsXsXsXsXsXsXsXsXsXsXsXsX",
"sXsXsXsXsXsXsXsXsXsXsXsXsXsXsXsXsXsXsX=Xx.c.y.^ X.$.4.7.~ _ @.v a R ( W 9.y.R J G | X.+..XiXsXsXsXsXsXsXsXsXsXsXsXsXsXsXsXsXsXsX",
"sXsXsXsXsXsXsXsXsXsXsXsXsXsXsXsXsXsXsXuX.X_ / 2.X.%.j.7.O. . .3 : v R J +.) J J v W R ' -XsXsXsXsXsXsXsXsXsXsXsXsXsXsXsXsXsXsXsX",
"sXsXsXsXsXsXsXsXsXsXsXsXsXsXsXsXsXsXsXsXyXF.C O.X...u.3.%.4.H $ @ 5 J J R R J R v P A =XsXsXsXsXsXsXsXsXsXsXsXsXsXsXsXsXsXsXsXsX",
"sXsXsXsXsXsXsXsXsXsXsXsXsXsXsXsXsXsXsXsXsXqX' ~  ._ / @.#.0.j # X 1 P J R J R | G m.;XsXsXsXsXsXsXsXsXsXsXsXsXsXsXsXsXsXsXsXsXsX",
"sXsXsXsXsXsXsXsXsXsXsXsXsXsXsXsXsXsXsXsXsXeX] | | ~ 1.u.f.0.6 O   % L E R J J W ;.7XsXsXsXsXsXsXsXsXsXsXsXsXsXsXsXsXsXsXsXsXsXsX",
"sXsXsXsXsXsXsXsXsXsXsXsXsXsXsXsXsXsXsXsXsX7X:.O.| 4.f.2.d.[ < +   o m o.! R R | M.hXsXsXsXsXsXsXsXsXsXsXsXsXsXsXsXsXsXsXsXsXsXsX",
"sXsXsXsXsXsXsXsXsXsXsXsXsXsXsXsXsXsXsXsXsX-Xe.9.f.0.0.1._ ' :       2 L +.( ! X.' eXsXsXsXsXsXsXsXsXsXsXsXsXsXsXsXsXsXsXsXsXsXsX",
"sXsXsXsXsXsXsXsXsXsXsXsXsXsXsXsXsXsXsXsXsX1XP.P.v.j.c.2.r.f O   .   # d +.E R W H 3XsXsXsXsXsXsXsXsXsXsXsXsXsXsXsXsXsXsXsXsXsXsX",
"sXsXsXsXsXsXsXsXsXsXsXsXsXsXsXsXsXsXsXsXsX-XE.T.T.k.d...I : .       o 6 { Q R W K =XsXsXsXsXsXsXsXsXsXsXsXsXsXsXsXsXsXsXsXsXsXsX",
"sXsXsXsXsXsXsXsXsXsXsXsXsXsXsXsXsXsXsXsXsXrXS.P.v.c.z.E > . .       . # a ! W | W ^.sXsXsXsXsXsXsXsXsXsXsXsXsXsXsXsXsXsXsXsXsXsX",
"sXsXsXsXsXsXsXsXsXsXsXsXsXsXsXsXsXsXsXsXsXpX4XD.:.x.] 2             . + : p u M ;.3XsXsXsXsXsXsXsXsXsXsXsXsXsXsXsXsXsXsXsXsXsXsX",
"sXsXsXsXsXsXsXsXsXsXsXsXsXsXsXsXsXsXsXsXsXsXsX5X9 6 @                   . = 8 {.rXsXsXsXsXsXsXsXsXsXsXsXsXsXsXsXsXsXsXsXsXsXsXsX",
"sXsXsXsXsXsXsXsXsXsXsXsXsXsXsXsXsXsXsXsXsXsXsXsXwX}.].8 8 = + + = = 8 ].}.wXhXsXsXsXsXsXsXsXsXsXsXsXsXsXsXsXsXsXsXsXsXsXsXsXsXsX",
"sXsXsXsXsXsXsXsXsXsXsXsXsXsXsXsXsXsXsXsXsXsXsXsXsXsXsXfXuX2X{.}.2XuXhXsXsXsXsXsXsXsXsXsXsXsXsXsXsXsXsXsXsXsXsXsXsXsXsXsXsXsXsXsX"
};
