/* XPM */
static char *_36cbb70a3114793ba049aecae4c090fS2K6x8d0AbcZ9HfC[] = {
/* columns rows colors chars-per-pixel */
"64 64 3 1 ",
"  c None",
". c white",
"X c black",
/* pixels */
"                      .................                         ",
"                      .................                         ",
"                      .................                         ",
"                   .......................                      ",
"                   .......................                      ",
"                   .......................                      ",
"                ............................                    ",
"                ............................                    ",
"                ............................                    ",
"             ..................................                 ",
"             ..................................                 ",
"             ..................................                 ",
"             ..................................                 ",
"             ..................................                 ",
"           .......................................              ",
"           .......................................              ",
"           .......................................              ",
"     ...................................................        ",
"     ...................................................        ",
"     ...................................................        ",
"     ...................................................        ",
"     ...................................................        ",
"     ...................................................        ",
"        .............................................           ",
"        .............................................           ",
"           ..........................................           ",
"           .......................................              ",
"           .......................................              ",
"           .......................................              ",
"           .......................................              ",
"           .......................................              ",
"           .......................................              ",
"           ...........XX..............XX..........              ",
"           ...........XX..............XX..........              ",
"              .................................                 ",
"              ..........XXXXXXXXXXXXX..........                 ",
"              ..........XXXXXXXXXXXXX..........                 ",
"                 ...........................                    ",
"                 ...........................                    ",
"              .................................                 ",
"              .................................                 ",
"              .................................                 ",
"           .......................................              ",
"           .......................................              ",
"           .......................................              ",
"        .............................................           ",
"        .............................................           ",
"        .............................................           ",
"        .............................................           ",
"        .............................................           ",
"        .............................................           ",
"           .......................................              ",
"           .......................................              ",
"                ............      ..........                    ",
"                ............      ..........                    ",
"                  ........        ..........                    ",
"                  ........        .............                 ",
"                                  .............                 ",
"                                  .............                 ",
"                                  .............                 ",
"                                  .............                 ",
"                                  ..........                    ",
"                                    ........                    ",
"                                    ........                    "
};
