/* XPM */
static char *pt1true1713546099[] = {
/* columns rows colors chars-per-pixel */
"64 64 2 1 ",
"  c None",
". c white",
/* pixels */
"                           ...............                      ",
"                           ...............                      ",
"                           ...............                      ",
"                        ........................                ",
"                        ........................                ",
"                        ........................                ",
"                     ..............................             ",
"                     ..............................             ",
"                     ..............................             ",
"                  ....................................          ",
"                  ....................................          ",
"                  ....................................          ",
"               .......................................          ",
"               .......................................          ",
"               .......................................          ",
"               ....................................             ",
"               ....................................             ",
"               ....................................             ",
"        .................................................       ",
"        .................................................       ",
"        .................................................       ",
"     .......................................................    ",
"     .......................................................    ",
"     .......................................................    ",
"        .................................................       ",
"        .................................................       ",
"        .................................................       ",
"           ...........................................          ",
"           ...........................................          ",
"           ...........................................          ",
"           ...........................................          ",
"           ...........................................          ",
"           ...........................................          ",
"              .....................................             ",
"              .....................................             ",
"              .....................................             ",
"                 ...............................                ",
"                 ...............................                ",
"                 ...............................                ",
"              .....................................             ",
"              .....................................             ",
"              .....................................             ",
"           ...........................................          ",
"           ...........................................          ",
"           ...........................................          ",
"        ................................................        ",
"        ................................................        ",
"        ................................................        ",
"        ................................................        ",
"        ................................................        ",
"        ................................................        ",
"           ..........................................           ",
"           ..........................................           ",
"           ..........................................           ",
"              ....................................              ",
"              ....................................              ",
"              ....................................              ",
"                 ..............................                 ",
"                 ..............................                 ",
"                 ..............................                 ",
"                    .........      .........                    ",
"                    .........      .........                    ",
"                    .........      .........                    ",
"                                                                "
};
