/* XPM */
static char *_a843de95f3b45e89501e66558618282dDqduBQLruX4GXpq[] = {
/* columns rows colors chars-per-pixel */
"63 64 3 1 ",
"  c #333333",
". c red",
"X c white",
/* pixels */
"                                                               ",
"                  .......................                      ",
"                  .......................                      ",
"                  .............................                ",
"            ...................................                ",
"            ...................................                ",
"            ......................................             ",
"         .........................................             ",
"         .........................................             ",
"         ............................................          ",
"      ...............................................          ",
"      ...............................................          ",
"      ...............................................          ",
"      ...............................................          ",
"      ...............................................          ",
"      ............................................             ",
"   ...............................................             ",
"   ...............................................             ",
"   ............................................                ",
"   ............................................                ",
"   ............................................                ",
"   ....................................XXX.....                ",
"   ....................................XXX.....                ",
"   ....................................XXX.....                ",
"   ...............................................             ",
"   ...............................................             ",
"   ...............................................             ",
"   .........   ..........................XXXXXX...             ",
"   .........   ..........................XXXXXX...             ",
"   .........   ..........................XXXXXX...             ",
"   .........   ................................                ",
"   .........   ................................                ",
"   .........   ................................                ",
"      ...      .............................                   ",
"      ...      .............................                   ",
"      ...      .............................                   ",
"                  .......................                      ",
"                  .......................                      ",
"                  .......................                      ",
"                  ..........................                   ",
"                  ..........................                   ",
"                  ..........................                   ",
"                  .............................                ",
"                  .............................                ",
"               ................................                ",
"               ...................................             ",
"               ...................................             ",
"               ...................................             ",
"            ..............................................     ",
"            ..............................................     ",
"            ..............................................     ",
"            ..............................................     ",
"            ..............................................     ",
"            ..............................................     ",
"         ...............           .......................     ",
"         ...............           .......................     ",
"         ...............           .......................     ",
"         ............              .......................     ",
"         ............                 .................        ",
"         ............                 .................        ",
"         ............                 .................        ",
"            ......                       ...........           ",
"            ......                       ...........           ",
"            ......                       ...........           "
};
