/* XPM */
static char *pe3true1713546099[] = {
/* columns rows colors chars-per-pixel */
"63 64 3 1 ",
"  c #333333",
". c white",
"X c red",
/* pixels */
"                                                               ",
"                      XXXXXXXXXXXXXXXXXXXXXXX                  ",
"                      XXXXXXXXXXXXXXXXXXXXXXX                  ",
"                XXXXXXXXXXXXXXXXXXXXXXXXXXXXX                  ",
"                XXXXXXXXXXXXXXXXXXXXXXXXXXXXXXXXXXX            ",
"                XXXXXXXXXXXXXXXXXXXXXXXXXXXXXXXXXXX            ",
"             XXXXXXXXXXXXXXXXXXXXXXXXXXXXXXXXXXXXXX            ",
"             XXXXXXXXXXXXXXXXXXXXXXXXXXXXXXXXXXXXXXXXX         ",
"             XXXXXXXXXXXXXXXXXXXXXXXXXXXXXXXXXXXXXXXXX         ",
"          XXXXXXXXXXXXXXXXXXXXXXXXXXXXXXXXXXXXXXXXXXXX         ",
"          XXXXXXXXXXXXXXXXXXXXXXXXXXXXXXXXXXXXXXXXXXXXXXX      ",
"          XXXXXXXXXXXXXXXXXXXXXXXXXXXXXXXXXXXXXXXXXXXXXXX      ",
"          XXXXXXXXXXXXXXXXXXXXXXXXXXXXXXXXXXXXXXXXXXXXXXX      ",
"          XXXXXXXXXXXXXXXXXXXXXXXXXXXXXXXXXXXXXXXXXXXXXXX      ",
"          XXXXXXXXXXXXXXXXXXXXXXXXXXXXXXXXXXXXXXXXXXXXXXX      ",
"             XXXXXXXXXXXXXXXXXXXXXXXXXXXXXXXXXXXXXXXXXXXX      ",
"             XXXXXXXXXXXXXXXXXXXXXXXXXXXXXXXXXXXXXXXXXXXXXXX   ",
"             XXXXXXXXXXXXXXXXXXXXXXXXXXXXXXXXXXXXXXXXXXXXXXX   ",
"                XXXXXXXXXXXXXXXXXXXXXXXXXXXXXXXXXXXXXXXXXXXX   ",
"                XXXXXXXXXXXXXXXXXXXXXXXXXXXXXXXXXXXXXXXXXXXX   ",
"                XXXXXXXXXXXXXXXXXXXXXXXXXXXXXXXXXXXXXXXXXXXX   ",
"                XXXXX...XXXXXXXXXXXXXXXXXXXXXXXXXXXXXXXXXXXX   ",
"                XXXXX...XXXXXXXXXXXXXXXXXXXXXXXXXXXXXXXXXXXX   ",
"                XXXXX...XXXXXXXXXXXXXXXXXXXXXXXXXXXXXXXXXXXX   ",
"             XXXXXXXXXXXXXXXXXXXXXXXXXXXXXXXXXXXXXXXXXXXXXXX   ",
"             XXXXXXXXXXXXXXXXXXXXXXXXXXXXXXXXXXXXXXXXXXXXXXX   ",
"             XXXXXXXXXXXXXXXXXXXXXXXXXXXXXXXXXXXXXXXXXXXXXXX   ",
"             XXX......XXXXXXXXXXXXXXXXXXXXXXXXXX   XXXXXXXXX   ",
"             XXX......XXXXXXXXXXXXXXXXXXXXXXXXXX   XXXXXXXXX   ",
"             XXX......XXXXXXXXXXXXXXXXXXXXXXXXXX   XXXXXXXXX   ",
"                XXXXXXXXXXXXXXXXXXXXXXXXXXXXXXXX   XXXXXXXXX   ",
"                XXXXXXXXXXXXXXXXXXXXXXXXXXXXXXXX   XXXXXXXXX   ",
"                XXXXXXXXXXXXXXXXXXXXXXXXXXXXXXXX   XXXXXXXXX   ",
"                   XXXXXXXXXXXXXXXXXXXXXXXXXXXXX      XXX      ",
"                   XXXXXXXXXXXXXXXXXXXXXXXXXXXXX      XXX      ",
"                   XXXXXXXXXXXXXXXXXXXXXXXXXXXXX      XXX      ",
"                      XXXXXXXXXXXXXXXXXXXXXXX                  ",
"                      XXXXXXXXXXXXXXXXXXXXXXX                  ",
"                      XXXXXXXXXXXXXXXXXXXXXXX                  ",
"                   XXXXXXXXXXXXXXXXXXXXXXXXXX                  ",
"                   XXXXXXXXXXXXXXXXXXXXXXXXXX                  ",
"                   XXXXXXXXXXXXXXXXXXXXXXXXXX                  ",
"                XXXXXXXXXXXXXXXXXXXXXXXXXXXXX                  ",
"                XXXXXXXXXXXXXXXXXXXXXXXXXXXXX                  ",
"                XXXXXXXXXXXXXXXXXXXXXXXXXXXXXXXX               ",
"             XXXXXXXXXXXXXXXXXXXXXXXXXXXXXXXXXXX               ",
"             XXXXXXXXXXXXXXXXXXXXXXXXXXXXXXXXXXX               ",
"             XXXXXXXXXXXXXXXXXXXXXXXXXXXXXXXXXXX               ",
"     XXXXXXXXXXXXXXXXXXXXXXXXXXXXXXXXXXXXXXXXXXXXXX            ",
"     XXXXXXXXXXXXXXXXXXXXXXXXXXXXXXXXXXXXXXXXXXXXXX            ",
"     XXXXXXXXXXXXXXXXXXXXXXXXXXXXXXXXXXXXXXXXXXXXXX            ",
"     XXXXXXXXXXXXXXXXXXXXXXXXXXXXXXXXXXXXXXXXXXXXXX            ",
"     XXXXXXXXXXXXXXXXXXXXXXXXXXXXXXXXXXXXXXXXXXXXXX            ",
"     XXXXXXXXXXXXXXXXXXXXXXXXXXXXXXXXXXXXXXXXXXXXXX            ",
"     XXXXXXXXXXXXXXXXXXXXXXX           XXXXXXXXXXXXXXX         ",
"     XXXXXXXXXXXXXXXXXXXXXXX           XXXXXXXXXXXXXXX         ",
"     XXXXXXXXXXXXXXXXXXXXXXX           XXXXXXXXXXXXXXX         ",
"     XXXXXXXXXXXXXXXXXXXXXXX              XXXXXXXXXXXX         ",
"        XXXXXXXXXXXXXXXXX                 XXXXXXXXXXXX         ",
"        XXXXXXXXXXXXXXXXX                 XXXXXXXXXXXX         ",
"        XXXXXXXXXXXXXXXXX                 XXXXXXXXXXXX         ",
"           XXXXXXXXXXX                       XXXXXX            ",
"           XXXXXXXXXXX                       XXXXXX            ",
"           XXXXXXXXXXX                       XXXXXX            "
};
