/* XPM */
static char *pt2true1713546099[] = {
/* columns rows colors chars-per-pixel */
"64 64 2 1 ",
"  c None",
". c red",
/* pixels */
"                           ...............                      ",
"                           ...............                      ",
"                           ...............                      ",
"                        ........................                ",
"                        ........................                ",
"                        ........................                ",
"                     ..............................             ",
"                     ..............................             ",
"                     ..............................             ",
"                  ....................................          ",
"                  ....................................          ",
"                  ....................................          ",
"               .......................................          ",
"               .......................................          ",
"               .......................................          ",
"               ....................................             ",
"               ....................................             ",
"               ....................................             ",
"        .................................................       ",
"        .................................................       ",
"        .................................................       ",
"     .......................................................    ",
"     .......................................................    ",
"     .......................................................    ",
"        .................................................       ",
"        .................................................       ",
"        .................................................       ",
"           ...........................................          ",
"           ...........................................          ",
"           ...........................................          ",
"           ...........................................          ",
"           ...........................................          ",
"           ...........................................          ",
"              .....................................             ",
"              .....................................             ",
"              .....................................             ",
"                 ...............................                ",
"                 ...............................                ",
"                 ...............................                ",
"              .....................................             ",
"              .....................................             ",
"              .....................................             ",
"           ...........................................          ",
"           ...........................................          ",
"           ...........................................          ",
"        ................................................        ",
"        ................................................        ",
"        ................................................        ",
"        ................................................        ",
"        ................................................        ",
"        ................................................        ",
"           ..........................................           ",
"           ..........................................           ",
"           ..........................................           ",
"                    ..............................              ",
"                    ..............................              ",
"                    ..............................              ",
"                                   ..................           ",
"                                   ..................           ",
"                                   ..................           ",
"                                      ...............           ",
"                                      ............              ",
"                                         .........              ",
"                                         .........              "
};
